<?xml version="1.0" encoding="UTF-8"?>
<!DOCTYPE svg PUBLIC "-//W3C//DTD SVG 1.1//EN" "http://www.w3.org/Graphics/SVG/1.1/DTD/svg11.dtd">
<!-- Creator: CorelDRAW X6 -->
<svg xmlns="http://www.w3.org/2000/svg" xml:space="preserve" width="11.7512in" height="12.0798in" version="1.1" style="shape-rendering:geometricPrecision; text-rendering:geometricPrecision; image-rendering:optimizeQuality; fill-rule:evenodd; clip-rule:evenodd"
viewBox="0 0 11751 12080"
 xmlns:xlink="http://www.w3.org/1999/xlink">
 <defs>
  <style type="text/css">
   <![CDATA[
    .fil5 {fill:black;fill-rule:nonzero}
    .fil17 {fill:#231F1F;fill-rule:nonzero}
    .fil2 {fill:#282828;fill-rule:nonzero}
    .fil1 {fill:#C6C6C6;fill-rule:nonzero}
    .fil3 {fill:#CD4444;fill-rule:nonzero}
    .fil4 {fill:#D83A3A;fill-rule:nonzero}
    .fil6 {fill:#E6E6E8;fill-rule:nonzero}
    .fil0 {fill:#EDEDED;fill-rule:nonzero}
    .fil10 {fill:url(#id1);fill-rule:nonzero}
    .fil11 {fill:url(#id2);fill-rule:nonzero}
    .fil12 {fill:url(#id3);fill-rule:nonzero}
    .fil7 {fill:url(#id4);fill-rule:nonzero}
    .fil13 {fill:url(#id5);fill-rule:nonzero}
    .fil8 {fill:url(#id6);fill-rule:nonzero}
    .fil9 {fill:url(#id7);fill-rule:nonzero}
    .fil14 {fill:url(#id8);fill-rule:nonzero}
    .fil15 {fill:url(#id9);fill-rule:nonzero}
    .fil16 {fill:url(#id10);fill-rule:nonzero}
   ]]>
  </style>
   <clipPath id="id0" style="clip-rule:nonzero">
    <rect x="-10288" y="256" width="2944" height="486"/>
   </clipPath>
  <linearGradient id="id1" gradientUnits="userSpaceOnUse" x1="2680.9" y1="8085.54" x2="2680.9" y2="6440.25">
   <stop offset="0" style="stop-color:#F0F0F2"/>
   <stop offset="1" style="stop-color:#808083"/>
  </linearGradient>
  <linearGradient id="id2" gradientUnits="userSpaceOnUse" xlink:href="#id1" x1="4299.56" y1="9025.92" x2="4299.56" y2="7380.61">
  </linearGradient>
  <linearGradient id="id3" gradientUnits="userSpaceOnUse" xlink:href="#id1" x1="4299.56" y1="7176.01" x2="4299.56" y2="5530.72">
  </linearGradient>
  <linearGradient id="id4" gradientUnits="userSpaceOnUse" xlink:href="#id1" x1="4299.56" y1="5326.13" x2="4299.56" y2="3680.83">
  </linearGradient>
  <linearGradient id="id5" gradientUnits="userSpaceOnUse" xlink:href="#id1" x1="5918.22" y1="8070.13" x2="5918.22" y2="6424.83">
  </linearGradient>
  <linearGradient id="id6" gradientUnits="userSpaceOnUse" xlink:href="#id1" x1="5918.22" y1="6266.49" x2="5918.22" y2="4621.19">
  </linearGradient>
  <linearGradient id="id7" gradientUnits="userSpaceOnUse" xlink:href="#id1" x1="5918.22" y1="4416.6" x2="5918.22" y2="2771.3">
  </linearGradient>
  <linearGradient id="id8" gradientUnits="userSpaceOnUse" xlink:href="#id1" x1="7536.87" y1="9010.51" x2="7536.87" y2="7365.2">
  </linearGradient>
  <linearGradient id="id9" gradientUnits="userSpaceOnUse" xlink:href="#id1" x1="7536.87" y1="7160.61" x2="7536.87" y2="5515.31">
  </linearGradient>
  <linearGradient id="id10" gradientUnits="userSpaceOnUse" xlink:href="#id1" x1="9093.87" y1="6148.78" x2="9093.87" y2="4503.48">
  </linearGradient>
 </defs>
 <g id="__x0023_Layer_x0020_1">
  <metadata id="CorelCorpID_0Corel-Layer"/>
  <polygon class="fil0" points="-10573,12071 11745,12071 11745,-9 -10573,-9 "/>
  <g style="clip-path:url(#id0)">
   <image transform="matrix(1 0 0 1 -16163.5 -5298.24)" x="5876" y="5554" width="2944" height="486" xlink:href="p1e53jqqi04u31tuj15ap8r017eg4_Images\p1e53jqqi04u31tuj15ap8r017eg4_ImgID1.png"/>
  </g>
  <g id="_159483128">
   <polygon class="fil1" points="-6962,2383 -7050,1889 -6972,1889 -6910,2274 -6848,1889 -6769,1889 -6859,2383 "/>
   <polygon class="fil1" points="-6707,2383 -6707,1888 -6495,1888 -6495,1963 -6632,1963 -6632,2098 -6532,2098 -6532,2173 -6632,2173 -6632,2308 -6495,2308 -6495,2383 "/>
   <path class="fil1" d="M-6325 2390c-33,0 -61,-12 -84,-35 -23,-23 -35,-51 -35,-83l0 -270c0,-33 12,-61 35,-84 23,-23 51,-35 84,-35 33,0 61,12 84,35 23,23 34,51 34,84l0 56 -77 0 0 -58c0,-12 -4,-22 -13,-30 -8,-8 -19,-13 -30,-13 -12,0 -22,4 -30,13 -8,8 -12,19 -12,30l0 271c0,12 4,22 12,30 8,8 18,12 30,12 12,0 22,-4 30,-12 8,-8 13,-18 13,-30l0 -68 77 0 0 69c0,33 -12,61 -35,84 -23,23 -51,34 -83,34z"/>
   <polygon class="fil1" points="-6077,1964 -6156,1964 -6156,1889 -5923,1889 -5923,1964 -6002,1964 -6002,2383 -6077,2383 "/>
   <path class="fil1" d="M-5754 1883c33,0 61,12 84,35 23,23 35,51 35,84l0 270c0,33 -12,61 -35,84 -23,23 -51,35 -84,35 -33,0 -61,-12 -84,-35 -23,-23 -34,-51 -34,-84l0 -270c0,-33 12,-61 35,-84 23,-23 51,-35 83,-35zm41 117l0 0c0,-12 -4,-22 -12,-30 -8,-8 -18,-12 -30,-12 -12,0 -22,4 -30,12 -8,8 -13,18 -13,30l0 271c0,12 4,22 13,30 8,8 19,12 30,12 12,0 22,-4 30,-12 8,-8 12,-18 12,-30l0 -271z"/>
   <path class="fil1" d="M-5452 1889c42,0 72,11 92,34 17,20 26,48 26,84l0 72c0,35 -13,65 -40,89l55 216 -81 0 -45 -186c-2,0 -4,0 -7,0l-43 0 0 186 -75 0 0 -494 118 0zm45 119l0 0c0,-29 -14,-43 -43,-43l-45 0 0 158 45 0c12,0 22,-4 30,-13 8,-8 12,-19 12,-30l0 -72z"/>
   <polygon class="fil1" points="-5142,2383 -5217,2383 -5217,1888 -5004,1888 -5004,1963 -5142,1963 -5142,2098 -5042,2098 -5042,2173 -5142,2173 "/>
   <path class="fil1" d="M-4836 1889c42,0 72,11 92,34 17,20 26,48 26,84l0 72c0,35 -13,65 -40,89l55 216 -81 0 -45 -186c-2,0 -4,0 -7,0l-43 0 0 186 -75 0 0 -494 118 0zm45 119l0 0c0,-29 -14,-43 -43,-43l-45 0 0 158 45 0c12,0 22,-4 30,-13 8,-8 12,-19 12,-30l0 -72z"/>
   <polygon class="fil1" points="-4639,2383 -4639,1888 -4427,1888 -4427,1963 -4565,1963 -4565,2098 -4464,2098 -4464,2173 -4565,2173 -4565,2308 -4427,2308 -4427,2383 "/>
   <polygon class="fil1" points="-4376,2383 -4376,1888 -4163,1888 -4163,1963 -4301,1963 -4301,2098 -4200,2098 -4200,2173 -4301,2173 -4301,2308 -4163,2308 -4163,2383 "/>
   <path class="fil1" d="M-4112 2383l0 -495 112 0c29,0 56,8 80,23 20,13 35,34 43,61 5,15 7,32 7,52 0,33 -9,60 -26,80 -7,8 -16,15 -26,19 17,6 31,19 42,37 8,13 13,29 17,49 2,10 3,22 3,34 0,31 -6,58 -18,80 -9,17 -22,31 -39,41 -19,12 -38,17 -56,17l-138 0zm80 -293l0 0 31 0c23,0 39,-11 47,-34 3,-8 4,-19 4,-31 0,-21 -5,-36 -15,-47 -9,-10 -21,-15 -36,-15l-31 0 0 126zm0 219l0 0 31 0c25,0 43,-13 52,-39 3,-9 5,-19 5,-31 0,-28 -5,-48 -16,-60 -9,-12 -23,-17 -42,-17l-31 0 0 148z"/>
   <polygon class="fil1" points="-3721,2383 -3796,2383 -3796,1889 -3721,1889 "/>
   <polygon class="fil1" points="-3655,2383 -3655,1888 -3442,1888 -3442,1963 -3580,1963 -3580,2098 -3479,2098 -3479,2173 -3580,2173 -3580,2308 -3442,2308 -3442,2383 "/>
  </g>
  <g id="_384559456">
   <polygon class="fil2" points="-7896,4631 -7896,5061 -8049,5061 -8049,4047 -7896,4047 -7896,4477 -7711,4477 -7711,4047 -7559,4047 -7559,5061 -7711,5061 -7711,4631 "/>
   <polygon class="fil2" points="-7422,5061 -7422,4046 -6987,4046 -6987,4200 -7269,4200 -7269,4477 -7063,4477 -7063,4630 -7269,4630 -7269,4907 -6987,4907 -6987,5061 "/>
   <polygon class="fil2" points="-6318,5061 -6482,5061 -6599,4738 -6717,5061 -6882,5061 -6683,4551 -6882,4047 -6713,4047 -6599,4360 -6487,4047 -6318,4047 -6517,4551 "/>
   <path class="fil2" d="M-6016 4828l-37 233 -159 0 172 -1014 210 0 170 1014 -161 0 -36 -233 -160 0zm80 -548l0 0 -57 400 113 0 -57 -400z"/>
   <path class="fil2" d="M-5312 5074c-67,0 -125,-24 -172,-71 -47,-47 -71,-104 -71,-171l0 -553c0,-67 24,-125 71,-172 47,-47 105,-71 171,-71 67,0 125,24 171,71 47,47 70,105 70,171l0 116 -159 0 0 -119c0,-24 -9,-45 -26,-62 -17,-17 -38,-26 -62,-26 -24,0 -45,9 -62,26 -17,17 -25,38 -25,62l0 555c0,24 9,45 25,62 17,17 38,25 62,25 24,0 45,-8 62,-25 17,-17 26,-38 26,-62l0 -199 -85 0 0 -154 243 0 0 354c0,67 -24,125 -71,171 -47,47 -104,70 -171,70z"/>
   <path class="fil2" d="M-4698 4034c67,0 125,24 172,71 47,47 71,105 71,171l0 553c0,67 -24,125 -71,172 -47,47 -105,71 -171,71 -67,0 -125,-24 -171,-71 -47,-47 -70,-105 -70,-171l0 -553c0,-67 24,-125 71,-172 47,-47 104,-71 171,-71zm83 239l0 0c0,-24 -8,-45 -25,-62 -17,-17 -38,-25 -62,-25 -24,0 -45,8 -62,25 -17,17 -26,38 -26,62l0 555c0,24 9,45 26,62 17,17 38,25 62,25 24,0 45,-8 62,-25 17,-17 25,-38 25,-62l0 -555z"/>
   <polygon class="fil2" points="-4150,4046 -3947,4728 -3947,4046 -3794,4046 -3794,5061 -3958,5061 -4169,4411 -4169,5061 -4322,5061 -4322,4046 "/>
   <path class="fil2" d="M-3470 4828l-37 233 -159 0 172 -1014 210 0 170 1014 -161 0 -36 -233 -160 0zm80 -548l0 0 -57 400 113 0 -57 -400z"/>
   <polygon class="fil2" points="-2569,5061 -2985,5061 -2985,4047 -2832,4047 -2832,4909 -2569,4909 "/>
   <path class="fil2" d="M-7138 5414c74,0 134,23 178,70 41,45 61,102 61,171l0 147c0,67 -23,124 -70,171 -47,47 -103,71 -169,71l-88 0 0 382 -153 0 0 -1014 241 0zm91 244l0 0c0,-26 -8,-48 -24,-64 -16,-16 -37,-24 -63,-24l-92 0 0 324 92 0c24,0 45,-9 62,-26 17,-17 25,-38 25,-62l0 -148z"/>
   <path class="fil2" d="M-6536 6439c-67,0 -125,-23 -171,-70 -47,-47 -70,-104 -70,-171l0 -784 150 0 0 782c0,24 9,45 26,62 17,17 38,25 62,25 24,0 45,-8 62,-25 17,-17 25,-38 25,-62l0 -782 159 0 0 784c0,68 -24,125 -71,171 -47,46 -105,70 -171,70z"/>
   <polygon class="fil2" points="-5986,5413 -5783,6095 -5783,5413 -5630,5413 -5630,6427 -5794,6427 -6004,5778 -6004,6427 -6157,6427 -6157,5413 "/>
   <path class="fil2" d="M-5253 6440c-67,0 -125,-24 -172,-71 -47,-47 -71,-104 -71,-171l0 -553c0,-67 24,-125 71,-172 47,-47 105,-71 171,-71 67,0 125,24 171,71 47,47 70,105 70,171l0 116 -159 0 0 -119c0,-24 -9,-45 -26,-62 -17,-17 -38,-26 -62,-26 -24,0 -45,9 -62,26 -17,17 -25,38 -25,62l0 555c0,24 8,45 25,62 17,17 38,25 62,25 24,0 45,-8 62,-25 17,-17 26,-38 26,-62l0 -140 159 0 0 142c0,67 -24,125 -71,171 -47,47 -104,70 -171,70z"/>
   <polygon class="fil2" points="-4733,5998 -4733,6427 -4886,6427 -4886,5414 -4733,5414 -4733,5844 -4548,5844 -4548,5414 -4396,5414 -4396,6427 -4548,6427 -4548,5998 "/>
   <polygon class="fil2" points="-4259,6427 -4259,5413 -3824,5413 -3824,5567 -4106,5567 -4106,5843 -3900,5843 -3900,5997 -4106,5997 -4106,6274 -3824,6274 -3824,6427 "/>
   <path class="fil2" d="M-3238 6185c0,67 -23,124 -70,171 -47,47 -104,71 -170,71l-240 0 0 -1014 240 0c67,0 124,24 170,71 47,47 70,104 70,171l0 530zm-328 91l0 0 92 0c24,0 45,-9 61,-26 17,-18 25,-38 25,-62l0 -531c0,-24 -8,-45 -25,-62 -17,-17 -37,-26 -61,-26l-92 0 0 707z"/>
   <polygon class="fil2" points="-6562,7364 -6562,7794 -6715,7794 -6715,6780 -6562,6780 -6562,7211 -6378,7211 -6378,6780 -6225,6780 -6225,7794 -6378,7794 -6378,7364 "/>
   <path class="fil2" d="M-5848 6767c67,0 125,24 172,71 47,47 71,105 71,171l0 553c0,67 -24,125 -71,172 -47,47 -105,71 -171,71 -67,0 -125,-24 -171,-71 -47,-47 -70,-105 -70,-171l0 -553c0,-67 24,-125 71,-172 47,-47 104,-71 171,-71zm83 239l0 0c0,-24 -8,-45 -25,-62 -17,-17 -38,-25 -62,-25 -24,0 -45,9 -62,25 -17,17 -26,38 -26,62l0 555c0,24 9,45 26,62 17,17 38,25 62,25 24,0 45,-8 62,-25 17,-17 25,-38 25,-62l0 -555z"/>
   <polygon class="fil2" points="-5054,7794 -5470,7794 -5470,6780 -5317,6780 -5317,7642 -5054,7642 "/>
   <polygon class="fil2" points="-4948,7794 -4948,6780 -4513,6780 -4513,6933 -4796,6933 -4796,7210 -4589,7210 -4589,7364 -4796,7364 -4796,7640 -4513,7640 -4513,7794 "/>
   <path class="fil2" d="M-3903 7542c1,71 -17,131 -55,181 -25,34 -60,58 -105,72 -24,8 -53,11 -85,11 -60,0 -109,-15 -149,-44 -33,-24 -59,-57 -78,-99 -19,-42 -30,-90 -34,-144l146 -11c6,59 22,102 47,128 18,20 39,30 63,28 33,-1 60,-18 80,-49 10,-16 15,-38 15,-67 0,-42 -19,-84 -57,-125 -30,-29 -76,-72 -136,-129 -51,-49 -87,-93 -108,-132 -23,-44 -34,-91 -34,-142 0,-92 31,-162 93,-210 38,-29 86,-43 142,-43 54,0 101,12 140,36 30,19 55,45 73,79 19,34 30,73 34,117l-146 27c-4,-42 -16,-74 -36,-97 -14,-17 -34,-25 -61,-25 -28,0 -49,12 -64,37 -12,20 -18,45 -18,74 0,46 20,94 60,142 15,18 38,40 68,65 36,30 59,50 70,62 38,38 67,75 87,112 10,17 18,33 23,48 15,36 22,68 23,97z"/>
  </g>
  <g id="_384562480">
   <path class="fil2" d="M-1953 811l-25 153 125 0 -19 122 -126 0 -31 190 -121 0 31 -190 -105 0 -31 190 -121 0 31 -190 -119 0 19 -122 121 0 25 -153 -119 0 19 -122 120 0 36 -218 121 0 -36 218 105 0 36 -218 121 0 -36 218 125 0 -19 122 -127 0zm-122 0l0 0 -105 0 -25 153 105 0 25 -153z"/>
   <path class="fil2" d="M-1725 980l214 -509 121 0 0 509 78 0 0 122 -78 0 0 173 -121 0 0 -173 -214 0 0 -122zm214 0l0 0 0 -251 -100 251 100 0z"/>
   <path class="fil2" d="M-828 1093c0,53 -19,99 -56,136 -38,37 -83,56 -135,56 -53,0 -99,-19 -136,-56 -37,-37 -56,-83 -56,-136l0 -439c0,-53 19,-99 56,-136 38,-37 83,-56 136,-56 53,0 99,19 136,56 37,38 56,83 56,136l0 439zm-126 -441l0 0c0,-19 -7,-36 -21,-49 -14,-14 -30,-21 -49,-21 -19,0 -36,7 -49,21 -13,14 -20,30 -20,49l0 439c0,19 7,36 20,49 13,14 30,21 49,21 19,0 36,-7 49,-21 14,-14 21,-30 21,-49l0 -439z"/>
   <path class="fil2" d="M-543 462c53,0 97,19 132,58 34,37 51,82 51,135l0 439c0,53 -17,99 -52,136 -35,37 -78,56 -130,56 -53,0 -97,-19 -132,-57 -34,-37 -51,-82 -51,-135l0 -17 126 0 0 20c0,20 5,36 16,49 10,13 25,20 45,20 19,0 34,-7 45,-20 10,-13 16,-30 16,-49l0 -161c-28,25 -59,38 -92,38 -53,0 -93,-19 -119,-56 -24,-32 -35,-78 -35,-136l0 -138 1 0c2,-37 12,-71 32,-100 19,-30 46,-52 79,-66 22,-9 46,-14 71,-14zm63 194l0 0c0,-20 -5,-36 -16,-50 -10,-13 -25,-20 -45,-20 -19,0 -34,7 -45,20 -10,13 -16,30 -16,50l0 149c0,24 9,43 26,58 8,7 19,11 34,11 31,0 50,-16 58,-49 2,-10 3,-17 3,-22l0 -147z"/>
  </g>
  <g id="_384563128">
   <path class="fil2" d="M-9936 11784c-33,0 -61,-12 -84,-35 -23,-23 -35,-51 -35,-83l0 -270c0,-33 12,-61 35,-84 23,-23 51,-35 84,-35 33,0 61,12 84,35 23,23 34,51 34,84l0 56 -77 0 0 -58c0,-12 -4,-22 -13,-30 -8,-8 -19,-13 -30,-13 -12,0 -22,4 -30,13 -8,8 -12,19 -12,30l0 271c0,12 4,22 12,30 8,8 18,12 30,12 12,0 22,-4 30,-12 8,-8 13,-18 13,-30l0 -97 -41 0 0 -75 119 0 0 173c0,33 -12,61 -35,84 -23,23 -51,34 -83,34z"/>
   <path class="fil2" d="M-9636 11277c33,0 61,12 84,35 23,23 35,51 35,84l0 270c0,33 -12,61 -35,84 -23,23 -51,35 -84,35 -33,0 -61,-12 -84,-35 -23,-23 -34,-51 -34,-84l0 -270c0,-33 12,-61 35,-84 23,-23 51,-35 83,-35zm41 117l0 0c0,-12 -4,-22 -12,-30 -8,-8 -18,-12 -30,-12 -12,0 -22,4 -30,12 -8,8 -13,18 -13,30l0 271c0,12 4,22 13,30 8,8 19,12 30,12 12,0 22,-4 30,-12 8,-8 12,-18 12,-30l0 -271z"/>
   <polygon class="fil2" points="-9336,11358 -9415,11358 -9415,11283 -9183,11283 -9183,11358 -9262,11358 -9262,11777 -9336,11777 "/>
   <path class="fil2" d="M-9013 11277c33,0 61,12 84,35 23,23 35,51 35,84l0 270c0,33 -12,61 -35,84 -23,23 -51,35 -84,35 -33,0 -61,-12 -84,-35 -23,-23 -34,-51 -34,-84l0 -270c0,-33 12,-61 35,-84 23,-23 51,-35 83,-35zm41 117l0 0c0,-12 -4,-22 -12,-30 -8,-8 -18,-12 -30,-12 -12,0 -22,4 -30,12 -8,8 -13,18 -13,30l0 271c0,12 4,22 13,30 8,8 19,12 30,12 12,0 22,-4 30,-12 8,-8 12,-18 12,-30l0 -271z"/>
   <path class="fil3" d="M-8675 11283c36,0 65,11 87,34 20,22 30,50 30,84l0 72c0,33 -11,60 -34,84 -23,23 -50,35 -83,35l-43 0 0 186 -75 0 0 -494 118 0zm45 119l0 0c0,-13 -4,-23 -12,-31 -8,-8 -18,-12 -31,-12l-45 0 0 158 45 0c12,0 22,-4 30,-13 8,-8 12,-19 12,-30l0 -72z"/>
   <polygon class="fil3" points="-8424,11777 -8498,11777 -8498,11283 -8424,11283 "/>
   <polygon class="fil3" points="-8087,11777 -8167,11777 -8224,11620 -8282,11777 -8362,11777 -8265,11529 -8362,11283 -8279,11283 -8224,11436 -8169,11283 -8087,11283 -8184,11529 "/>
   <polygon class="fil3" points="-8025,11777 -8025,11283 -7813,11283 -7813,11358 -7950,11358 -7950,11493 -7850,11493 -7850,11567 -7950,11567 -7950,11702 -7813,11702 -7813,11777 "/>
   <polygon class="fil3" points="-7558,11777 -7761,11777 -7761,11283 -7687,11283 -7687,11703 -7558,11703 "/>
   <polygon class="fil3" points="-7328,11282 -7328,11357 -7433,11777 -7506,11777 -7401,11357 -7552,11357 -7552,11282 "/>
   <polygon class="fil3" points="-7053,11282 -7053,11357 -7157,11777 -7231,11777 -7126,11357 -7277,11357 -7277,11282 "/>
   <polygon class="fil3" points="-7001,11703 -6927,11703 -6927,11778 -7001,11778 "/>
   <path class="fil3" d="M-6757 11784c-33,0 -61,-12 -84,-35 -23,-23 -35,-51 -35,-83l0 -270c0,-33 12,-61 35,-84 23,-23 51,-35 84,-35 33,0 61,12 84,35 23,23 34,51 34,84l0 56 -77 0 0 -58c0,-12 -4,-22 -13,-30 -8,-8 -19,-13 -30,-13 -12,0 -22,4 -30,13 -8,8 -12,19 -12,30l0 271c0,12 4,22 12,30 8,8 18,12 30,12 12,0 22,-4 30,-12 8,-8 13,-18 13,-30l0 -68 77 0 0 69c0,33 -12,61 -35,84 -23,23 -51,34 -83,34z"/>
   <path class="fil3" d="M-6461 11277c33,0 61,12 84,35 23,23 35,51 35,84l0 270c0,33 -12,61 -35,84 -23,23 -51,35 -84,35 -33,0 -61,-12 -84,-35 -23,-23 -34,-51 -34,-84l0 -270c0,-33 12,-61 35,-84 23,-23 51,-35 83,-35zm41 117l0 0c0,-12 -4,-22 -12,-30 -8,-8 -18,-12 -30,-12 -12,0 -22,4 -30,12 -8,8 -13,18 -13,30l0 271c0,12 4,22 13,30 8,8 19,12 30,12 12,0 22,-4 30,-12 8,-8 12,-18 12,-30l0 -271z"/>
   <polygon class="fil3" points="-6203,11777 -6277,11777 -6277,11283 -6170,11283 -6101,11638 -6034,11283 -5931,11283 -5931,11777 -6006,11777 -6006,11466 -6071,11777 -6131,11777 -6203,11467 "/>
   <path class="fil2" d="M-5733 11664l-18 114 -78 0 84 -494 103 0 83 494 -78 0 -17 -114 -78 0zm39 -268l0 0 -28 195 55 0 -28 -195z"/>
   <polygon class="fil2" points="-5413,11283 -5314,11615 -5314,11283 -5239,11283 -5239,11777 -5319,11777 -5422,11461 -5422,11777 -5497,11777 -5497,11283 "/>
   <path class="fil2" d="M-4938 11659c0,33 -11,61 -34,84 -23,23 -51,35 -83,35l-117 0 0 -495 117 0c33,0 60,12 83,35 23,23 34,51 34,83l0 258zm-160 45l0 0 45 0c12,0 22,-4 30,-13 8,-9 12,-19 12,-30l0 -259c0,-12 -4,-22 -12,-30 -8,-8 -18,-13 -30,-13l-45 0 0 345z"/>
   <path class="fil2" d="M-4589 11654c1,34 -8,64 -27,88 -12,17 -29,28 -51,35 -12,4 -26,6 -41,6 -29,0 -53,-7 -73,-22 -16,-12 -29,-28 -38,-48 -9,-20 -15,-44 -16,-70l71 -5c3,29 11,50 23,63 9,10 19,14 31,14 16,-1 29,-9 39,-24 5,-8 8,-19 8,-33 0,-21 -9,-41 -28,-61 -15,-14 -37,-35 -66,-63 -25,-24 -42,-45 -52,-64 -11,-21 -17,-44 -17,-69 0,-45 15,-79 45,-102 19,-14 42,-21 69,-21 27,0 49,6 68,18 15,9 27,22 36,39 9,17 15,36 16,57l-71 13c-2,-20 -8,-36 -17,-47 -7,-8 -17,-12 -30,-12 -14,0 -24,6 -31,18 -6,10 -9,22 -9,36 0,23 10,46 29,69 7,9 18,19 33,32 17,14 29,25 34,30 18,18 33,37 43,54 5,8 9,16 11,23 7,18 11,33 11,47z"/>
   <path class="fil2" d="M-4410 11783c-33,0 -61,-11 -84,-34 -23,-23 -34,-51 -34,-83l0 -382 73 0 0 382c0,12 4,22 13,30 8,8 19,12 30,12 12,0 22,-4 30,-12 8,-8 12,-18 12,-30l0 -382 78 0 0 382c0,33 -12,61 -35,84 -23,23 -51,34 -84,34z"/>
   <path class="fil2" d="M-4225 11777l0 -495 112 0c29,0 56,8 80,23 20,13 35,34 43,61 5,15 7,32 7,52 0,33 -9,60 -26,80 -7,8 -16,15 -26,19 17,6 31,19 42,37 8,13 13,29 17,49 2,10 3,22 3,34 0,31 -6,58 -18,80 -9,17 -22,31 -39,41 -19,12 -38,17 -56,17l-138 0zm80 -293l0 0 31 0c23,0 39,-11 47,-34 3,-8 4,-19 4,-31 0,-21 -5,-36 -15,-47 -9,-10 -21,-15 -36,-15l-31 0 0 126zm0 219l0 0 31 0c25,0 43,-13 52,-39 3,-9 5,-19 5,-31 0,-28 -5,-48 -16,-60 -9,-12 -23,-17 -42,-17l-31 0 0 148z"/>
   <path class="fil2" d="M-3667 11654c1,34 -8,64 -27,88 -12,17 -29,28 -51,35 -12,4 -26,6 -41,6 -29,0 -53,-7 -73,-22 -16,-12 -29,-28 -38,-48 -9,-20 -15,-44 -16,-70l71 -5c3,29 11,50 23,63 9,10 19,14 31,14 16,-1 29,-9 39,-24 5,-8 8,-19 8,-33 0,-21 -9,-41 -28,-61 -15,-14 -37,-35 -66,-63 -25,-24 -42,-45 -52,-64 -11,-21 -17,-44 -17,-69 0,-45 15,-79 45,-102 19,-14 42,-21 69,-21 27,0 49,6 68,18 15,9 27,22 36,39 9,17 15,36 16,57l-71 13c-2,-20 -8,-36 -17,-47 -7,-8 -17,-12 -30,-12 -14,0 -24,6 -31,18 -6,10 -9,22 -9,36 0,23 10,46 29,69 7,9 18,19 33,32 17,14 29,25 34,30 18,18 33,37 43,54 5,8 9,16 11,23 7,18 11,33 11,47z"/>
   <path class="fil2" d="M-3488 11784c-33,0 -61,-12 -84,-35 -23,-23 -35,-51 -35,-83l0 -270c0,-33 12,-61 35,-84 23,-23 51,-35 84,-35 33,0 61,12 84,35 23,23 34,51 34,84l0 56 -77 0 0 -58c0,-12 -4,-22 -13,-30 -8,-8 -19,-13 -30,-13 -12,0 -22,4 -30,13 -8,8 -12,19 -12,30l0 271c0,12 4,22 12,30 8,8 18,12 30,12 12,0 22,-4 30,-12 8,-8 13,-18 13,-30l0 -68 77 0 0 69c0,33 -12,61 -35,84 -23,23 -51,34 -83,34z"/>
   <path class="fil2" d="M-3191 11283c42,0 72,11 92,34 17,20 26,48 26,84l0 72c0,35 -13,65 -40,89l55 216 -81 0 -45 -186c-2,0 -4,0 -7,0l-43 0 0 186 -75 0 0 -494 118 0zm45 119l0 0c0,-29 -14,-43 -43,-43l-45 0 0 158 45 0c12,0 22,-4 30,-13 8,-8 12,-19 12,-30l0 -72z"/>
   <polygon class="fil2" points="-2920,11777 -2995,11777 -2995,11283 -2920,11283 "/>
   <path class="fil2" d="M-2853 11777l0 -495 112 0c29,0 56,8 80,23 20,13 35,34 43,61 5,15 7,32 7,52 0,33 -9,60 -26,80 -7,8 -16,15 -26,19 17,6 31,19 42,37 8,13 13,29 17,49 2,10 3,22 3,34 0,31 -6,58 -18,80 -9,17 -22,31 -39,41 -19,12 -38,17 -56,17l-138 0zm80 -293l0 0 31 0c23,0 39,-11 47,-34 3,-8 4,-19 4,-31 0,-21 -5,-36 -15,-47 -9,-10 -21,-15 -36,-15l-31 0 0 126zm0 219l0 0 31 0c25,0 43,-13 52,-39 3,-9 5,-19 5,-31 0,-28 -5,-48 -16,-60 -9,-12 -23,-17 -42,-17l-31 0 0 148z"/>
   <polygon class="fil2" points="-2538,11777 -2538,11283 -2326,11283 -2326,11358 -2463,11358 -2463,11493 -2363,11493 -2363,11567 -2463,11567 -2463,11702 -2326,11702 -2326,11777 "/>
   <polygon class="fil2" points="-2144,11358 -2223,11358 -2223,11283 -1990,11283 -1990,11358 -2069,11358 -2069,11777 -2144,11777 "/>
   <path class="fil2" d="M-1821 11277c33,0 61,12 84,35 23,23 35,51 35,84l0 270c0,33 -12,61 -35,84 -23,23 -51,35 -84,35 -33,0 -61,-12 -84,-35 -23,-23 -34,-51 -34,-84l0 -270c0,-33 12,-61 35,-84 23,-23 51,-35 83,-35zm41 117l0 0c0,-12 -4,-22 -12,-30 -8,-8 -18,-12 -30,-12 -12,0 -22,4 -30,12 -8,8 -13,18 -13,30l0 271c0,12 4,22 13,30 8,8 19,12 30,12 12,0 22,-4 30,-12 8,-8 12,-18 12,-30l0 -271z"/>
   <path class="fil4" d="M-1482 11283c42,0 72,11 92,34 17,20 26,48 26,84l0 72c0,35 -13,65 -40,89l55 216 -81 0 -45 -186c-2,0 -4,0 -7,0l-43 0 0 186 -75 0 0 -494 118 0zm45 119l0 0c0,-29 -14,-43 -43,-43l-45 0 0 158 45 0c12,0 22,-4 30,-13 8,-8 12,-19 12,-30l0 -72z"/>
   <path class="fil4" d="M-1065 11654c1,34 -8,64 -27,88 -12,17 -29,28 -51,35 -12,4 -26,6 -41,6 -29,0 -53,-7 -73,-22 -16,-12 -29,-28 -38,-48 -9,-20 -15,-44 -16,-70l71 -5c3,29 11,50 23,63 9,10 19,14 31,14 16,-1 29,-9 39,-24 5,-8 8,-19 8,-33 0,-21 -9,-41 -28,-61 -15,-14 -37,-35 -66,-63 -25,-24 -42,-45 -52,-64 -11,-21 -17,-44 -17,-69 0,-45 15,-79 45,-102 19,-14 42,-21 69,-21 27,0 49,6 68,18 15,9 27,22 36,39 9,17 15,36 16,57l-71 13c-2,-20 -8,-36 -17,-47 -7,-8 -17,-12 -30,-12 -14,0 -24,6 -31,18 -6,10 -9,22 -9,36 0,23 10,46 29,69 7,9 18,19 33,32 17,14 29,25 34,30 18,18 33,37 43,54 5,8 9,16 11,23 7,18 11,33 11,47z"/>
   <path class="fil4" d="M-767 11654c1,34 -8,64 -27,88 -12,17 -29,28 -51,35 -12,4 -26,6 -41,6 -29,0 -53,-7 -73,-22 -16,-12 -29,-28 -38,-48 -9,-20 -15,-44 -16,-70l71 -5c3,29 11,50 23,63 9,10 19,14 31,14 16,-1 29,-9 39,-24 5,-8 8,-19 8,-33 0,-21 -9,-41 -28,-61 -15,-14 -37,-35 -66,-63 -25,-24 -42,-45 -52,-64 -11,-21 -17,-44 -17,-69 0,-45 15,-79 45,-102 19,-14 42,-21 69,-21 27,0 49,6 68,18 15,9 27,22 36,39 9,17 15,36 16,57l-71 13c-2,-20 -8,-36 -17,-47 -7,-8 -17,-12 -30,-12 -14,0 -24,6 -31,18 -6,10 -9,22 -9,36 0,23 10,46 29,69 7,9 18,19 33,32 17,14 29,25 34,30 18,18 33,37 43,54 5,8 9,16 11,23 7,18 11,33 11,47z"/>
   <polygon class="fil4" points="-715,11703 -641,11703 -641,11778 -715,11778 "/>
  </g>
  <g id="_384566488">
   <path class="fil5" d="M-8132 10874l0 -219 82 0c17,0 30,2 40,7 10,4 18,11 24,20 6,9 9,19 9,29 0,9 -3,18 -8,26 -5,8 -13,15 -23,20 13,4 23,10 31,20 7,9 11,20 11,33 0,10 -2,20 -6,29 -4,9 -10,16 -16,20 -6,5 -14,8 -24,11 -10,2 -21,4 -35,4l-83 0zm29 -127l0 0 47 0c13,0 22,-1 28,-3 7,-2 13,-6 17,-11 4,-5 6,-11 6,-19 0,-7 -2,-14 -5,-19 -3,-6 -8,-9 -15,-11 -6,-2 -18,-3 -33,-3l-44 0 0 66zm0 101l0 0 54 0c9,0 16,0 20,-1 7,-1 12,-3 17,-6 4,-3 8,-7 11,-12 3,-5 4,-11 4,-18 0,-8 -2,-15 -6,-21 -4,-6 -10,-10 -17,-13 -7,-2 -18,-4 -32,-4l-51 0 0 75z"/>
   <path class="fil5" d="M-7822 10823l28 3c-4,16 -12,29 -24,38 -12,9 -27,13 -45,13 -23,0 -42,-7 -55,-21 -14,-14 -20,-34 -20,-60 0,-27 7,-47 21,-62 14,-15 32,-22 53,-22 21,0 38,7 52,22 13,14 20,35 20,61 0,2 0,4 0,7l-118 0c1,17 6,31 15,40 9,9 20,14 33,14 10,0 18,-3 25,-8 7,-5 12,-13 17,-25zm-88 -43l0 0 88 0c-1,-13 -5,-23 -10,-30 -9,-10 -20,-16 -33,-16 -12,0 -23,4 -31,12 -8,8 -13,19 -14,33z"/>
   <path class="fil5" d="M-7617 10850l4 24c-8,2 -14,2 -20,2 -10,0 -17,-2 -23,-5 -5,-3 -9,-7 -11,-12 -2,-5 -3,-16 -3,-32l0 -91 -20 0 0 -21 20 0 0 -39 27 -16 0 55 27 0 0 21 -27 0 0 93c0,8 0,13 1,15 1,2 2,4 5,5 2,1 5,2 9,2 3,0 7,0 12,-1z"/>
   <path class="fil5" d="M-7591 10874l0 -219 27 0 0 78c13,-15 28,-22 47,-22 12,0 22,2 31,7 9,5 15,11 19,19 4,8 6,20 6,36l0 100 -27 0 0 -100c0,-13 -3,-23 -9,-29 -6,-6 -14,-9 -25,-9 -8,0 -15,2 -22,6 -7,4 -12,10 -15,17 -3,7 -4,17 -4,29l0 87 -27 0z"/>
   <path class="fil5" d="M-7312 10823l28 3c-4,16 -12,29 -24,38 -12,9 -27,13 -45,13 -23,0 -42,-7 -55,-21 -14,-14 -20,-34 -20,-60 0,-27 7,-47 21,-62 14,-15 32,-22 53,-22 21,0 38,7 52,22 13,14 20,35 20,61 0,2 0,4 0,7l-118 0c1,17 6,31 15,40 9,9 20,14 33,14 10,0 18,-3 25,-8 7,-5 12,-13 17,-25zm-88 -43l0 0 88 0c-1,-13 -5,-23 -10,-30 -9,-10 -20,-16 -33,-16 -12,0 -23,4 -31,12 -8,8 -13,19 -14,33z"/>
   <path class="fil5" d="M-7160 10874l0 -138 -24 0 0 -21 24 0 0 -17c0,-11 1,-19 3,-24 3,-7 7,-13 14,-17 7,-4 16,-6 27,-6 8,0 16,1 25,3l-4 23c-6,-1 -11,-1 -16,-1 -8,0 -14,2 -17,5 -3,3 -5,10 -5,20l0 15 31 0 0 21 -31 0 0 138 -27 0z"/>
   <path class="fil5" d="M-7081 10686l0 -31 27 0 0 31 -27 0zm0 188l0 0 0 -158 27 0 0 158 -27 0z"/>
   <path class="fil5" d="M-7014 10874l0 -158 24 0 0 24c6,-11 12,-19 17,-22 5,-4 11,-5 17,-5 9,0 18,3 28,9l-9 25c-7,-4 -13,-6 -20,-6 -6,0 -11,2 -16,5 -5,4 -8,8 -10,15 -3,10 -4,20 -4,31l0 83 -27 0z"/>
   <path class="fil5" d="M-6922 10827l27 -4c1,11 6,19 12,24 7,6 16,9 29,9 12,0 21,-3 27,-8 6,-5 9,-11 9,-18 0,-6 -3,-11 -8,-14 -4,-2 -13,-5 -27,-9 -20,-5 -33,-9 -41,-13 -8,-4 -13,-9 -17,-15 -4,-6 -6,-13 -6,-21 0,-7 2,-14 5,-20 3,-6 8,-11 13,-15 4,-3 10,-6 17,-8 7,-2 15,-3 23,-3 12,0 23,2 33,5 9,4 16,8 21,15 4,6 8,14 9,25l-26 4c-1,-8 -5,-15 -10,-19 -6,-5 -14,-7 -24,-7 -12,0 -21,2 -26,6 -5,4 -8,9 -8,14 0,3 1,7 3,9 2,3 6,5 10,7 3,1 11,3 24,7 19,5 32,9 40,12 8,3 13,8 18,14 4,6 6,14 6,23 0,9 -3,17 -8,25 -5,8 -13,14 -23,18 -10,4 -21,6 -33,6 -21,0 -36,-4 -47,-13 -11,-9 -18,-21 -21,-38z"/>
   <path class="fil5" d="M-6700 10850l4 24c-8,2 -14,2 -20,2 -10,0 -17,-2 -23,-5 -5,-3 -9,-7 -11,-12 -2,-5 -3,-16 -3,-32l0 -91 -20 0 0 -21 20 0 0 -39 27 -16 0 55 27 0 0 21 -27 0 0 93c0,8 0,13 1,15 1,2 2,4 5,5 2,1 5,2 9,2 3,0 7,0 12,-1z"/>
   <path class="fil5" d="M-6530 10850l4 24c-8,2 -14,2 -20,2 -10,0 -17,-2 -23,-5 -5,-3 -9,-7 -11,-12 -2,-5 -3,-16 -3,-32l0 -91 -20 0 0 -21 20 0 0 -39 27 -16 0 55 27 0 0 21 -27 0 0 93c0,8 0,13 1,15 1,2 2,4 5,5 2,1 5,2 9,2 3,0 7,0 12,-1z"/>
   <path class="fil5" d="M-6514 10795c0,-29 8,-51 24,-65 14,-12 30,-18 50,-18 22,0 40,7 53,21 14,14 21,34 21,59 0,20 -3,36 -9,48 -6,12 -15,21 -27,27 -12,6 -24,10 -38,10 -22,0 -40,-7 -54,-21 -14,-14 -21,-35 -21,-61zm28 0l0 0c0,20 4,35 13,46 9,10 20,15 33,15 13,0 24,-5 33,-15 9,-10 13,-26 13,-46 0,-20 -4,-34 -13,-45 -9,-10 -20,-15 -33,-15 -13,0 -25,5 -33,15 -9,10 -13,25 -13,46z"/>
   <path class="fil5" d="M-6146 10874l0 -20c-10,16 -25,24 -44,24 -13,0 -24,-3 -35,-10 -11,-7 -19,-17 -25,-29 -6,-12 -9,-27 -9,-43 0,-16 3,-30 8,-43 5,-13 13,-23 24,-30 11,-7 22,-10 35,-10 10,0 18,2 26,6 7,4 14,9 18,16l0 -78 27 0 0 219 -25 0zm-85 -79l0 0c0,20 4,35 13,46 9,10 19,15 30,15 12,0 22,-5 30,-14 8,-10 12,-24 12,-44 0,-22 -4,-38 -13,-48 -8,-10 -19,-15 -31,-15 -12,0 -22,5 -30,15 -8,10 -12,25 -12,46z"/>
   <path class="fil5" d="M-6089 10795c0,-29 8,-51 24,-65 14,-12 30,-18 50,-18 22,0 40,7 53,21 14,14 21,34 21,59 0,20 -3,36 -9,48 -6,12 -15,21 -27,27 -12,6 -24,10 -38,10 -22,0 -40,-7 -54,-21 -14,-14 -21,-35 -21,-61zm28 0l0 0c0,20 4,35 13,46 9,10 20,15 33,15 13,0 24,-5 33,-15 9,-10 13,-26 13,-46 0,-20 -4,-34 -13,-45 -9,-10 -20,-15 -33,-15 -13,0 -25,5 -33,15 -9,10 -13,25 -13,46z"/>
   <path class="fil5" d="M-5880 10874l-48 -158 28 0 25 91 9 34c0,-2 3,-13 8,-33l25 -93 28 0 24 92 8 30 9 -31 27 -92 26 0 -50 158 -28 0 -25 -95 -6 -27 -32 122 -28 0z"/>
   <path class="fil5" d="M-5689 10874l0 -158 24 0 0 23c12,-17 28,-26 50,-26 10,0 18,2 26,5 8,3 14,8 18,14 4,6 7,12 8,20 1,5 1,14 1,26l0 97 -27 0 0 -96c0,-11 -1,-19 -3,-25 -2,-5 -6,-10 -11,-13 -5,-3 -12,-5 -19,-5 -11,0 -21,4 -30,11 -8,7 -12,21 -12,41l0 87 -27 0z"/>
   <polygon class="fil5" points="-5519,10874 -5519,10655 -5492,10655 -5492,10874 "/>
   <path class="fil5" d="M-5461 10795c0,-29 8,-51 24,-65 14,-12 30,-18 50,-18 22,0 40,7 53,21 14,14 21,34 21,59 0,20 -3,36 -9,48 -6,12 -15,21 -27,27 -12,6 -24,10 -38,10 -22,0 -40,-7 -54,-21 -14,-14 -21,-35 -21,-61zm28 0l0 0c0,20 4,35 13,46 9,10 20,15 33,15 13,0 24,-5 33,-15 9,-10 13,-26 13,-46 0,-20 -4,-34 -13,-45 -9,-10 -20,-15 -33,-15 -13,0 -25,5 -33,15 -9,10 -13,25 -13,46z"/>
   <path class="fil5" d="M-5178 10855c-10,8 -20,14 -29,18 -9,3 -19,5 -30,5 -17,0 -31,-4 -40,-13 -9,-8 -14,-19 -14,-33 0,-8 2,-15 5,-21 4,-6 8,-12 14,-15 6,-4 12,-7 19,-9 5,-1 13,-3 24,-4 22,-3 38,-6 48,-9 0,-4 0,-6 0,-7 0,-11 -3,-19 -8,-23 -7,-6 -17,-9 -31,-9 -13,0 -22,2 -28,7 -6,4 -10,12 -13,23l-26 -4c2,-11 6,-20 12,-27 5,-7 13,-12 24,-16 10,-4 22,-6 36,-6 14,0 25,2 33,5 8,3 15,7 19,12 4,5 7,11 8,18 1,5 1,13 1,25l0 36c0,25 1,41 2,47 1,7 3,13 7,19l-28 0c-3,-6 -5,-12 -5,-20zm-2 -60l0 0c-10,4 -24,7 -44,10 -11,2 -19,3 -23,5 -5,2 -8,5 -11,9 -2,4 -4,8 -4,13 0,7 3,13 8,18 5,5 13,7 24,7 10,0 20,-2 28,-7 8,-5 14,-11 18,-19 3,-6 4,-15 4,-27l0 -10z"/>
   <path class="fil5" d="M-5008 10874l0 -20c-10,16 -25,24 -44,24 -13,0 -24,-3 -35,-10 -11,-7 -19,-17 -25,-29 -6,-12 -9,-27 -9,-43 0,-16 3,-30 8,-43 5,-13 13,-23 24,-30 11,-7 22,-10 35,-10 10,0 18,2 26,6 7,4 14,9 18,16l0 -78 27 0 0 219 -25 0zm-85 -79l0 0c0,20 4,35 13,46 9,10 19,15 30,15 12,0 22,-5 30,-14 8,-10 12,-24 12,-44 0,-22 -4,-38 -13,-48 -8,-10 -19,-15 -31,-15 -12,0 -22,5 -30,15 -8,10 -12,25 -12,46z"/>
   <path class="fil5" d="M-4850 10874l0 -138 -24 0 0 -21 24 0 0 -17c0,-11 1,-19 3,-24 3,-7 7,-13 14,-17 7,-4 16,-6 27,-6 8,0 16,1 25,3l-4 23c-6,-1 -11,-1 -16,-1 -8,0 -14,2 -17,5 -3,3 -5,10 -5,20l0 15 31 0 0 21 -31 0 0 138 -27 0z"/>
   <path class="fil5" d="M-4667 10874l0 -23c-12,18 -29,27 -50,27 -9,0 -18,-2 -26,-5 -8,-4 -14,-8 -18,-13 -4,-5 -7,-12 -8,-20 -1,-5 -2,-14 -2,-25l0 -98 27 0 0 88c0,14 1,23 2,28 2,7 5,13 11,17 5,4 12,6 20,6 8,0 16,-2 23,-6 7,-4 12,-10 15,-17 3,-7 4,-17 4,-31l0 -85 27 0 0 158 -24 0z"/>
   <path class="fil5" d="M-4543 10850l4 24c-8,2 -14,2 -20,2 -10,0 -17,-2 -23,-5 -5,-3 -9,-7 -11,-12 -2,-5 -3,-16 -3,-32l0 -91 -20 0 0 -21 20 0 0 -39 27 -16 0 55 27 0 0 21 -27 0 0 93c0,8 0,13 1,15 1,2 2,4 5,5 2,1 5,2 9,2 3,0 7,0 12,-1z"/>
   <path class="fil5" d="M-4413 10874l0 -23c-12,18 -29,27 -50,27 -9,0 -18,-2 -26,-5 -8,-4 -14,-8 -18,-13 -4,-5 -7,-12 -8,-20 -1,-5 -2,-14 -2,-25l0 -98 27 0 0 88c0,14 1,23 2,28 2,7 5,13 11,17 5,4 12,6 20,6 8,0 16,-2 23,-6 7,-4 12,-10 15,-17 3,-7 4,-17 4,-31l0 -85 27 0 0 158 -24 0z"/>
   <path class="fil5" d="M-4347 10874l0 -158 24 0 0 24c6,-11 12,-19 17,-22 5,-4 11,-5 17,-5 9,0 18,3 28,9l-9 25c-7,-4 -13,-6 -20,-6 -6,0 -11,2 -16,5 -5,4 -8,8 -10,15 -3,10 -4,20 -4,31l0 83 -27 0z"/>
   <path class="fil5" d="M-4136 10823l28 3c-4,16 -12,29 -24,38 -12,9 -27,13 -45,13 -23,0 -42,-7 -55,-21 -14,-14 -20,-34 -20,-60 0,-27 7,-47 21,-62 14,-15 32,-22 53,-22 21,0 38,7 52,22 13,14 20,35 20,61 0,2 0,4 0,7l-118 0c1,17 6,31 15,40 9,9 20,14 33,14 10,0 18,-3 25,-8 7,-5 12,-13 17,-25zm-88 -43l0 0 88 0c-1,-13 -5,-23 -10,-30 -9,-10 -20,-16 -33,-16 -12,0 -23,4 -31,12 -8,8 -13,19 -14,33z"/>
   <path class="fil5" d="M-3983 10874l0 -138 -24 0 0 -21 24 0 0 -17c0,-11 1,-19 3,-24 3,-7 7,-13 14,-17 7,-4 16,-6 27,-6 8,0 16,1 25,3l-4 23c-6,-1 -11,-1 -16,-1 -8,0 -14,2 -17,5 -3,3 -5,10 -5,20l0 15 31 0 0 21 -31 0 0 138 -27 0z"/>
   <path class="fil5" d="M-3905 10874l0 -158 24 0 0 24c6,-11 12,-19 17,-22 5,-4 11,-5 17,-5 9,0 18,3 28,9l-9 25c-7,-4 -13,-6 -20,-6 -6,0 -11,2 -16,5 -5,4 -8,8 -10,15 -3,10 -4,20 -4,31l0 83 -27 0z"/>
   <path class="fil5" d="M-3695 10823l28 3c-4,16 -12,29 -24,38 -12,9 -27,13 -45,13 -23,0 -42,-7 -55,-21 -14,-14 -20,-34 -20,-60 0,-27 7,-47 21,-62 14,-15 32,-22 53,-22 21,0 38,7 52,22 13,14 20,35 20,61 0,2 0,4 0,7l-118 0c1,17 6,31 15,40 9,9 20,14 33,14 10,0 18,-3 25,-8 7,-5 12,-13 17,-25zm-88 -43l0 0 88 0c-1,-13 -5,-23 -10,-30 -9,-10 -20,-16 -33,-16 -12,0 -23,4 -31,12 -8,8 -13,19 -14,33z"/>
   <path class="fil5" d="M-3525 10823l28 3c-4,16 -12,29 -24,38 -12,9 -27,13 -45,13 -23,0 -42,-7 -55,-21 -14,-14 -20,-34 -20,-60 0,-27 7,-47 21,-62 14,-15 32,-22 53,-22 21,0 38,7 52,22 13,14 20,35 20,61 0,2 0,4 0,7l-118 0c1,17 6,31 15,40 9,9 20,14 33,14 10,0 18,-3 25,-8 7,-5 12,-13 17,-25zm-88 -43l0 0 88 0c-1,-13 -5,-23 -10,-30 -9,-10 -20,-16 -33,-16 -12,0 -23,4 -31,12 -8,8 -13,19 -14,33z"/>
   <path class="fil5" d="M-3439 10874l-25 0 0 -219 27 0 0 78c11,-14 26,-21 43,-21 10,0 19,2 28,6 9,4 16,9 21,17 6,7 10,16 13,26 3,10 5,21 5,32 0,27 -7,48 -20,63 -13,15 -30,22 -48,22 -19,0 -33,-8 -44,-23l0 20zm0 -80l0 0c0,19 3,33 8,41 8,14 20,21 34,21 12,0 22,-5 30,-15 9,-10 13,-25 13,-46 0,-21 -4,-36 -12,-46 -8,-10 -18,-15 -30,-15 -12,0 -22,5 -30,15 -9,10 -13,25 -13,44z"/>
   <path class="fil5" d="M-3293 10686l0 -31 27 0 0 31 -27 0zm0 188l0 0 0 -158 27 0 0 158 -27 0z"/>
   <path class="fil5" d="M-3117 10823l28 3c-4,16 -12,29 -24,38 -12,9 -27,13 -45,13 -23,0 -42,-7 -55,-21 -14,-14 -20,-34 -20,-60 0,-27 7,-47 21,-62 14,-15 32,-22 53,-22 21,0 38,7 52,22 13,14 20,35 20,61 0,2 0,4 0,7l-118 0c1,17 6,31 15,40 9,9 20,14 33,14 10,0 18,-3 25,-8 7,-5 12,-13 17,-25zm-88 -43l0 0 88 0c-1,-13 -5,-23 -10,-30 -9,-10 -20,-16 -33,-16 -12,0 -23,4 -31,12 -8,8 -13,19 -14,33z"/>
   <path class="fil5" d="M-3066 10827l27 -4c1,11 6,19 12,24 7,6 16,9 29,9 12,0 21,-3 27,-8 6,-5 9,-11 9,-18 0,-6 -3,-11 -8,-14 -4,-2 -13,-5 -27,-9 -20,-5 -33,-9 -41,-13 -8,-4 -13,-9 -17,-15 -4,-6 -6,-13 -6,-21 0,-7 2,-14 5,-20 3,-6 8,-11 13,-15 4,-3 10,-6 17,-8 7,-2 15,-3 23,-3 12,0 23,2 33,5 9,4 16,8 21,15 4,6 8,14 9,25l-26 4c-1,-8 -5,-15 -10,-19 -6,-5 -14,-7 -24,-7 -12,0 -21,2 -26,6 -5,4 -8,9 -8,14 0,3 1,7 3,9 2,3 6,5 10,7 3,1 11,3 24,7 19,5 32,9 40,12 8,3 13,8 18,14 4,6 6,14 6,23 0,9 -3,17 -8,25 -5,8 -13,14 -23,18 -10,4 -21,6 -33,6 -21,0 -36,-4 -47,-13 -11,-9 -18,-21 -21,-38z"/>
   <path class="fil5" d="M-2889 10820l-8 -116 0 -48 33 0 0 48 -8 116 -17 0zm-7 54l0 0 0 -31 31 0 0 31 -31 0z"/>
  </g>
  <g id="_384569368">
   <path class="fil6" d="M10257 5203l-475 -823c-44,-76 -126,-123 -214,-123l-950 0c-88,0 -170,47 -214,123l-475 823c-12,21 -20,43 -26,66l-843 0c-3,0 -6,1 -10,1l-433 -750 463 -802c44,-76 44,-170 0,-247l-475 -823c-44,-76 -125,-123 -214,-123l-950 0c-88,0 -170,47 -214,123l-454 786c0,0 -1,0 -1,0l-950 0c-88,0 -170,47 -214,123l-475 823c-44,76 -44,170 0,247l463 802 -442 765c0,0 -1,0 -1,0l-950 0c-88,0 -170,47 -214,123l-475 823c-44,76 -44,170 0,247l475 823c44,76 125,123 214,123l933 0 472 817c44,76 125,123 214,123l950 0c88,0 170,-47 214,-123l475 -823c2,-3 3,-7 5,-10l909 0 472 817c44,76 125,123 214,123l950 0c88,0 170,-47 214,-123l475 -823c44,-76 44,-170 0,-247l-463 -802 463 -802c12,-21 20,-43 26,-66l843 0c88,0 170,-47 214,-123l475 -823c44,-76 44,-170 0,-247zm-2246 1958l0 0 -950 0 -475 -823 475 -823 950 0 475 823 -475 823zm-2569 910l0 0 -475 -823 475 -823 950 0 475 823 -475 823 -950 0zm-1619 -894l0 0 -475 -823 475 -823 950 0 475 823 -475 823 -950 0zm1619 -2555l0 0 950 0 475 823 -475 823 -950 0 -475 -823 475 -823zm0 -1850l0 0 950 0 475 823 -475 823 -950 0 -475 -823 475 -823zm-1619 910l0 0 950 0 475 823 -475 823 -950 0 -475 -823 475 -823zm-2094 3582l0 0 475 -823 950 0 475 823 -475 823 -950 0 -475 -823zm3044 1763l0 0 -950 0 -475 -823 475 -823 950 0 475 823 -475 823zm3237 -15l0 0 -950 0 -475 -823 475 -823 950 0 475 823 -475 823zm1557 -2862l0 0 -950 0 -475 -823 475 -823 950 0 475 823 -475 823z"/>
   <path class="fil7" d="M3825 5326l950 0 475 -823 -475 -823 -950 0 -475 823 475 823zm71 -1522l0 0 808 0 404 699 -404 699 -808 0 -404 -699 404 -699z"/>
   <path class="fil8" d="M4968 5444l475 823 950 0 475 -823 -475 -823 -950 0 -475 823zm1354 699l0 0 -808 0 -404 -699 404 -699 808 0 404 699 -404 699z"/>
   <path class="fil9" d="M4968 3594l475 823 950 0 475 -823 -475 -823 -950 0 -475 823zm546 -699l0 0 808 0 404 699 -404 699 -808 0 -404 -699 404 -699z"/>
   <path class="fil10" d="M3156 8086l475 -823 -475 -823 -950 0 -475 823 475 823 950 0zm-879 -123l0 0 -404 -699 404 -699 808 0 404 699 -404 699 -808 0z"/>
   <path class="fil11" d="M5249 8203l-475 -823 -950 0 -475 823 475 823 950 0 475 -823zm-546 699l0 0 -808 0 -404 -699 404 -699 808 0 404 699 -404 699z"/>
   <path class="fil12" d="M5249 6353l-475 -823 -950 0 -475 823 475 823 950 0 475 -823zm-1354 -699l0 0 808 0 404 699 -404 699 -808 0 -404 -699 404 -699z"/>
   <path class="fil13" d="M6393 8070l475 -823 -475 -823 -950 0 -475 823 475 823 950 0zm-879 -123l0 0 -404 -699 404 -699 808 0 404 699 -404 699 -808 0z"/>
   <path class="fil14" d="M8012 7365l-950 0 -475 823 475 823 950 0 475 -823 -475 -823zm-71 1522l0 0 -808 0 -404 -699 404 -699 808 0 404 699 -404 699z"/>
   <path class="fil15" d="M7062 5515l-475 823 475 823 950 0 475 -823 -475 -823 -950 0zm879 1522l0 0 -808 0 -404 -699 404 -699 808 0 404 699 -404 699z"/>
   <path class="fil16" d="M8619 4503l-475 823 475 823 950 0 475 -823 -475 -823 -950 0zm879 1522l0 0 -808 0 -404 -699 404 -699 808 0 404 699 -404 699z"/>
   <polygon class="fil17" points="4703,5203 5107,4503 4703,3804 3896,3804 3492,4503 3896,5203 "/>
   <polygon class="fil17" points="5514,4745 5111,5444 5514,6143 6322,6143 6726,5444 6322,4745 "/>
   <polygon class="fil17" points="6322,4293 6726,3594 6322,2895 5514,2895 5111,3594 5514,4293 "/>
   <polygon class="fil17" points="3085,6564 2277,6564 1873,7263 2277,7962 3085,7962 3488,7263 "/>
   <polygon class="fil17" points="3896,7504 3492,8203 3896,8903 4703,8903 5107,8203 4703,7504 "/>
   <polygon class="fil17" points="4703,7053 5107,6353 4703,5654 3896,5654 3492,6353 3896,7053 "/>
   <polygon class="fil17" points="6322,6548 5514,6548 5111,7247 5514,7947 6322,7947 6726,7247 "/>
   <polygon class="fil17" points="7133,7489 6729,8188 7133,8887 7941,8887 8344,8188 7941,7489 "/>
   <polygon class="fil17" points="7133,5639 6729,6338 7133,7037 7941,7037 8344,6338 7941,5639 "/>
   <polygon class="fil17" points="8690,4627 8286,5326 8690,6025 9498,6025 9901,5326 9498,4627 "/>
  </g>
 </g>
</svg>
